<svg height="512pt" viewBox="-26 0 512 512.00118" width="512pt" xmlns="http://www.w3.org/2000/svg"><path d="m34.132812 162.132812c-4.710937 0-8.53125 3.820313-8.53125 8.535157v8.535156h-8.535156c-4.710937 0-8.53125 3.820313-8.53125 8.53125 0 4.714844 3.820313 8.535156 8.53125 8.535156h8.535156v8.53125c0 4.714844 3.820313 8.535157 8.53125 8.535157 4.714844 0 8.535157-3.820313 8.535157-8.535157v-8.53125h8.53125c4.714843 0 8.535156-3.820312 8.535156-8.535156 0-4.710937-3.820313-8.53125-8.535156-8.53125h-8.53125v-8.535156c0-4.714844-3.820313-8.535157-8.535157-8.535157zm0 0"/><path d="m409.601562 25.601562c0-4.714843-3.820312-8.535156-8.535156-8.535156h-8.53125v-8.53125c0-4.714844-3.820312-8.535156-8.535156-8.535156-4.710938 0-8.53125 3.820312-8.53125 8.535156v8.53125h-8.535156c-4.710938 0-8.53125 3.820313-8.53125 8.535156 0 4.710938 3.820312 8.53125 8.53125 8.53125h8.535156v8.535157c0 4.710937 3.820312 8.535156 8.53125 8.535156 4.714844 0 8.535156-3.824219 8.535156-8.535156v-8.535157h8.53125c4.714844 0 8.535156-3.820312 8.535156-8.53125zm0 0"/><path d="m435.199219 512c4.714843 0 8.535156-3.820312 8.535156-8.53125v-8.535156h8.53125c4.714844 0 8.535156-3.820313 8.535156-8.53125 0-4.714844-3.820312-8.535156-8.535156-8.535156h-8.53125v-8.53125c0-4.714844-3.820313-8.535157-8.535156-8.535157-4.710938 0-8.53125 3.820313-8.53125 8.535157v8.53125h-8.535157c-4.710937 0-8.53125 3.820312-8.53125 8.535156 0 4.710937 3.820313 8.53125 8.53125 8.53125h8.535157v8.535156c0 4.710938 3.820312 8.53125 8.53125 8.53125zm0 0"/><path d="m179.679688 511.847656c3.335937.152344 6.089843.152344 8.054687.152344 50.046875 0 213.332031-12.304688 213.332031-170.664062 0-69.804688-38.246094-108.664063-72.003906-142.960938-25.464844-25.871094-47.460938-48.1875-47.460938-78.90625 0-79.070312 30.488282-103.929688 30.71875-104.109375 3.371094-2.527344 4.394532-7.136719 2.40625-10.851563-1.988281-3.71875-6.394531-5.425781-10.367187-4.019531-1.503906.527344-150.757813 55.132813-150.757813 221.378907 0 7.917968.851563 16.632812 1.707032 25.070312 1.78125 18.015625 3.804687 38.402344-3.738282 46.746094-4.066406 3.742187-9.542968 5.554687-15.035156 4.984375-12.316406 0-25.601562-13.046875-25.601562-34.132813 0-21.699218 22.878906-44.945312 23.109375-45.175781 2.667969-2.675781 3.257812-6.789063 1.449219-10.105469-1.804688-3.320312-5.578126-5.054687-9.273438-4.265625-23.492188 6.261719-45.222656 17.851563-63.507812 33.871094-28.578126 24.515625-62.710938 71.082031-62.710938 153.675781 0 79.742188 57.277344 117.699219 179.679688 119.3125zm-94.347657-68.113281c-.234375-18.179687 3.660157-36.171875 11.394531-52.625 6.785157 27.714844 26.308594 52.625 65.40625 52.625 23.039063 1.1875 45.269532-8.628906 59.914063-26.453125 25.898437-32.28125 23.894531-85.929688 20.242187-115.839844 19.035157 16.65625 47.84375 48.828125 47.84375 91.09375 0 63.144532-39.253906 102.398438-102.398437 102.398438-1.125 0-2.175781 0-3.285156 0-19.421875-.425782-99.117188-4.855469-99.117188-51.199219zm18.535157-212.25c-6.082032 9.992187-9.523438 21.363281-10 33.050781 0 31.625 22.144531 51.199219 42.667968 51.199219 10.324219.664063 20.425782-3.199219 27.671875-10.582031 12.621094-13.933594 10.308594-37.296875 8.074219-59.902344-.828125-8.378906-1.613281-16.308594-1.613281-23.382812-1.429688-79.457032 41.230469-153.183594 110.832031-191.546876-12.222656 28.082032-18.015625 58.539063-16.964844 89.148438 0 37.664062 25.4375 63.511719 52.367188 90.878906 32.964844 33.519532 67.097656 68.179688 67.097656 130.988282 0 37.988281-13.03125 117.375-116.242188 144.355468 25.0625-20.84375 39.441407-53.050781 39.441407-93.15625 0-72.167968-69.324219-116.328125-72.277344-118.171875-2.914063-1.820312-6.640625-1.714843-9.445313.273438-2.808593 1.984375-4.148437 5.460937-3.40625 8.816406.179688.851563 18.179688 83.898437-13.335937 123.179687-11.421875 13.765626-28.753906 21.21875-46.601563 20.035157-37.75 0-51.199218-30.855469-51.199218-59.734375 0-3.449219-2.078125-6.5625-5.269532-7.882813-3.1875-1.320312-6.855468-.589843-9.296874 1.851563-1.152344 1.152344-28.101563 28.722656-28.101563 82.832031-.269531 14.324219 5.460937 28.105469 15.804687 38.015625-57.445312-19.105469-67.003906-55.875-67.003906-89.214844 0-101.617187 53.472656-144.308594 86.800782-161.050781zm0 0"/></svg>