<svg height="512pt" viewBox="0 0 512 512" width="512pt" xmlns="http://www.w3.org/2000/svg"><path d="m469.332031 0h-426.664062c-23.554688.0273438-42.6406252 19.113281-42.667969 42.667969v426.664062c.0273438 23.554688 19.113281 42.640625 42.667969 42.667969h426.664062c23.554688-.027344 42.640625-19.113281 42.667969-42.667969v-426.664062c-.027344-23.554688-19.113281-42.6406252-42.667969-42.667969zm25.601563 469.332031c0 14.140625-11.460938 25.601563-25.601563 25.601563h-426.664062c-14.140625 0-25.601563-11.460938-25.601563-25.601563v-426.664062c0-14.140625 11.460938-25.601563 25.601563-25.601563h426.664062c14.140625 0 25.601563 11.460938 25.601563 25.601563zm0 0"/><path d="m469.332031 34.132812h-426.664062c-4.714844 0-8.535157 3.820313-8.535157 8.535157v426.664062c0 4.714844 3.820313 8.535157 8.535157 8.535157h426.664062c4.714844 0 8.535157-3.820313 8.535157-8.535157v-426.664062c0-4.714844-3.820313-8.535157-8.535157-8.535157zm-8.53125 426.667969h-409.601562v-409.601562h409.601562zm0 0"/><path d="m110.933594 418.132812h256c14.136718 0 25.601562-11.460937 25.601562-25.597656v-68.269531c-.03125-2.914063-.5625-5.800781-1.570312-8.53125h10.101562c23.550782-.027344 42.640625-19.117187 42.667969-42.667969v-34.132812c-.027344-23.550782-19.117187-42.640625-42.667969-42.667969h-10.101562c1.007812-2.730469 1.539062-5.617187 1.570312-8.53125v-68.269531c0-14.136719-11.464844-25.597656-25.601562-25.597656h-256c-23.550782.027343-42.640625 19.113281-42.667969 42.667968v34.132813c.027344 23.550781 19.117187 42.636719 42.667969 42.664062h10.101562c-1.007812 2.734375-1.539062 5.621094-1.570312 8.535157v68.265624c.03125 2.914063.5625 5.800782 1.570312 8.535157h-10.101562c-23.550782.027343-42.640625 19.113281-42.667969 42.664062v34.132813c.027344 23.554687 19.117187 42.640625 42.667969 42.667968zm-25.601563-247.464843v-34.132813c0-14.140625 11.460938-25.601562 25.601563-25.601562h256c4.710937 0 8.53125 3.820312 8.53125 8.53125v8.535156h-264.53125c-4.714844 0-8.535156 3.820312-8.535156 8.535156 0 4.710938 3.820312 8.53125 8.535156 8.53125h264.53125v17.066406h-264.53125c-4.714844 0-8.535156 3.820313-8.535156 8.535157 0 4.710937 3.820312 8.53125 8.535156 8.53125h264.53125v8.535156c0 4.710937-3.820313 8.53125-8.53125 8.53125h-256c-14.140625 0-25.601563-11.460937-25.601563-25.597656zm51.203125 119.464843v-8.53125h264.53125c4.714844 0 8.535156-3.820312 8.535156-8.535156 0-4.710937-3.820312-8.53125-8.535156-8.53125h-264.53125v-17.070312h264.53125c4.714844 0 8.535156-3.820313 8.535156-8.53125 0-4.714844-3.820312-8.535156-8.535156-8.535156h-264.53125v-8.53125c0-4.714844 3.820313-8.535157 8.53125-8.535157h256c14.140625 0 25.601563 11.460938 25.601563 25.601563v34.132812c0 14.140625-11.460938 25.601563-25.601563 25.601563h-256c-4.710937 0-8.53125-3.820313-8.53125-8.535157zm-51.203125 51.199219c0-14.136719 11.460938-25.597656 25.601563-25.597656h256c4.710937 0 8.53125 3.820313 8.53125 8.53125v8.535156h-264.53125c-4.714844 0-8.535156 3.820313-8.535156 8.53125 0 4.714844 3.820312 8.535157 8.535156 8.535157h264.53125v17.066406h-264.53125c-4.714844 0-8.535156 3.820312-8.535156 8.53125 0 4.714844 3.820312 8.535156 8.535156 8.535156h264.53125v8.535156c0 4.710938-3.820313 8.53125-8.53125 8.53125h-256c-14.140625 0-25.601563-11.460937-25.601563-25.601562zm0 0"/></svg>