<svg height="512" viewBox="0 0 60 60" width="512" xmlns="http://www.w3.org/2000/svg"><g id="Page-1" fill="none" fill-rule="evenodd"><g id="064---Subscription-Models" fill="rgb(0,0,0)" fill-rule="nonzero"><path id="Shape" d="m12 11c.4851707.000473.9000069.3491365.9839455.8269912.0839386.4778548-.1872399.9470217-.6432053 1.1128119-.4559653.1657902-.9651545-.0196329-1.2077402-.4398031-.2843876-.4596821-.882589-.61017-1.3506397-.3397768-.46805067.2703932-.63651313.8637835-.3803603 1.3397768.36302417.6087308.9298468 1.0692742 1.6 1.3v.2c0 .5522847.4477153 1 1 1s1-.4477153 1-1v-.184c1.3769108-.4849733 2.2030823-1.8925391 1.9552305-3.3311676-.2478517-1.4386286-1.4974125-2.48858024-2.9572305-2.4848324-.4851707-.00047298-.9000069-.34913653-.9839455-.82699124-.0839386-.47785472.1872399-.94702164.6432053-1.11281187.4559653-.16579023.9651545.01963291 1.2077402.43980311.2843876.45968211.882589.61017004 1.3506397.33977682.4680507-.27039323.6365131-.86378348.3803603-1.33977682-.3625283-.60836502-.9285888-1.06886482-1.598-1.3v-.2c0-.55228475-.4477153-1-1-1s-1 .44771525-1 1v.184c-1.37654748.48485233-2.2026937 1.89184415-1.95538732 3.33017801.24730637 1.43833387 1.49595002 2.48858739 2.95538732 2.48582199z"/><path id="Shape" d="m9 24h6c.5522847 0 1-.4477153 1-1s-.4477153-1-1-1h-6c-.55228475 0-1 .4477153-1 1s.44771525 1 1 1z"/><path id="Shape" d="m30 11c.4851707.000473.9000069.3491365.9839455.8269912.0839386.4778548-.1872399.9470217-.6432053 1.1128119-.4559653.1657902-.9651545-.0196329-1.2077402-.4398031-.2843876-.4596821-.882589-.61017-1.3506397-.3397768s-.6365131.8637835-.3803603 1.3397768c.3630242.6087308.9298468 1.0692742 1.6 1.3v.2c0 .5522847.4477153 1 1 1s1-.4477153 1-1v-.184c1.3769108-.4849733 2.2030823-1.8925391 1.9552305-3.3311676-.2478517-1.4386286-1.4974125-2.48858024-2.9572305-2.4848324-.4851707-.00047298-.9000069-.34913653-.9839455-.82699124-.0839386-.47785472.1872399-.94702164.6432053-1.11281187.4559653-.16579023.9651545.01963291 1.2077402.43980311.2843876.45968211.882589.61017004 1.3506397.33977682.4680507-.27039323.6365131-.86378348.3803603-1.33977682-.3625283-.60836502-.9285888-1.06886482-1.598-1.3v-.2c0-.55228475-.4477153-1-1-1s-1 .44771525-1 1v.184c-1.3765475.48485233-2.2026937 1.89184415-1.9553873 3.33017801.2473064 1.43833387 1.49595 2.48858739 2.9553873 2.48582199z"/><path id="Shape" d="m27 24h6c.5522847 0 1-.4477153 1-1s-.4477153-1-1-1h-6c-.5522847 0-1 .4477153-1 1s.4477153 1 1 1z"/><path id="Shape" d="m27 28h6c.5522847 0 1-.4477153 1-1s-.4477153-1-1-1h-6c-.5522847 0-1 .4477153-1 1s.4477153 1 1 1z"/><path id="Shape" d="m9 28h6c.5522847 0 1-.4477153 1-1s-.4477153-1-1-1h-6c-.55228475 0-1 .4477153-1 1s.44771525 1 1 1z"/><path id="Shape" d="m48 11c.4851707.000473.9000069.3491365.9839455.8269912.0839386.4778548-.1872399.9470217-.6432053 1.1128119-.4559653.1657902-.9651545-.0196329-1.2077402-.4398031-.2843876-.4596821-.882589-.61017-1.3506397-.3397768s-.6365131.8637835-.3803603 1.3397768c.3630242.6087308.9298468 1.0692742 1.6 1.3v.2c0 .5522847.4477153 1 1 1s1-.4477153 1-1v-.184c1.3769108-.4849733 2.2030823-1.8925391 1.9552305-3.3311676-.2478517-1.4386286-1.4974125-2.48858024-2.9572305-2.4848324-.4851707-.00047298-.9000069-.34913653-.9839455-.82699124-.0839386-.47785472.1872399-.94702164.6432053-1.11281187.4559653-.16579023.9651545.01963291 1.2077402.43980311.2843876.45968211.882589.61017004 1.3506397.33977682.4680507-.27039323.6365131-.86378348.3803603-1.33977682-.3625283-.60836502-.9285888-1.06886482-1.598-1.3v-.2c0-.55228475-.4477153-1-1-1s-1 .44771525-1 1v.184c-1.3765475.48485233-2.2026937 1.89184415-1.9553873 3.33017801.2473064 1.43833387 1.49595 2.48858739 2.9553873 2.48582199z"/><path id="Shape" d="m45 24h6c.5522847 0 1-.4477153 1-1s-.4477153-1-1-1h-6c-.5522847 0-1 .4477153-1 1s.4477153 1 1 1z"/><path id="Shape" d="m45 28h6c.5522847 0 1-.4477153 1-1s-.4477153-1-1-1h-6c-.5522847 0-1 .4477153-1 1s.4477153 1 1 1z"/><path id="Shape" d="m45 32h6c.5522847 0 1-.4477153 1-1s-.4477153-1-1-1h-6c-.5522847 0-1 .4477153-1 1s.4477153 1 1 1z"/><path id="Shape" d="m27 32h6c.5522847 0 1-.4477153 1-1s-.4477153-1-1-1h-6c-.5522847 0-1 .4477153-1 1s.4477153 1 1 1z"/><path id="Shape" d="m45 36h6c.5522847 0 1-.4477153 1-1s-.4477153-1-1-1h-6c-.5522847 0-1 .4477153-1 1s.4477153 1 1 1z"/><path id="Shape" d="m57 5h-1v-.647c.0909039-2.30420876-1.6963373-4.24917406-4-4.353h-8c-2.3036627.10382594-4.0909039 2.04879124-4 4.353v.647h-2v-.647c.0909039-2.30420876-1.6963373-4.24917406-4-4.353h-8c-2.3036627.10382594-4.0909039 2.04879124-4 4.353v.647h-2v-.647c.0909039-2.30420876-1.6963373-4.24917406-4-4.353h-8c-2.30366267.10382594-4.09090394 2.04879124-4 4.353v.647h-1c-1.65685425 0-3 1.34314575-3 3v39c0 1.6568542 1.34314575 3 3 3h17.382l-2 4h-3.382c-1.6568542 0-3 1.3431458-3 3s1.3431458 3 3 3h30c1.6568542 0 3-1.3431458 3-3s-1.3431458-3-3-3h-3.382l-2-4h17.382c1.6568542 0 3-1.3431458 3-3v-39c0-1.65685425-1.3431458-3-3-3zm-15 15h12v15.647c.0883024 1.1990717-.8023679 2.2469453-2 2.353h-8c-1.1976321-.1060547-2.0883024-1.1539283-2-2.353zm0-15.647c-.0883024-1.19907168.8023679-2.2469453 2-2.353h8c1.1976321.1060547 2.0883024 1.15392832 2 2.353v13.647h-12zm-18 15.647h12v15.647c.0883024 1.1990717-.8023679 2.2469453-2 2.353h-8c-1.1976321-.1060547-2.0883024-1.1539283-2-2.353zm0-15.647c-.0883024-1.19907168.8023679-2.2469453 2-2.353h8c1.1976321.1060547 2.0883024 1.15392832 2 2.353v13.647h-12zm-18 15.647h12v15.647c.0883024 1.1990717-.8023679 2.2469453-2 2.353h-8c-1.19763208-.1060547-2.08830239-1.1539283-2-2.353zm0-15.647c-.08830239-1.19907168.80236792-2.2469453 2-2.353h8c1.1976321.1060547 2.0883024 1.15392832 2 2.353v13.647h-12zm40 52.647c0 .5522847-.4477153 1-1 1h-30c-.5522847 0-1-.4477153-1-1s.4477153-1 1-1h30c.5522847 0 1 .4477153 1 1zm-6.618-3h-18.764l2-4h14.764zm17.618-6h-54c-.55228475 0-1-.4477153-1-1v-3h4c.55228475 0 1-.4477153 1-1s-.44771525-1-1-1h-4v-34c0-.55228475.44771525-1 1-1h1v28.647c-.09090394 2.3042088 1.69633733 4.2491741 4 4.353h8c2.3036627-.1038259 4.0909039-2.0487912 4-4.353v-28.647h2v28.647c-.0909039 2.3042088 1.6963373 4.2491741 4 4.353h8c2.3036627-.1038259 4.0909039-2.0487912 4-4.353v-28.647h2v28.647c-.0909039 2.3042088 1.6963373 4.2491741 4 4.353h8c2.3036627-.1038259 4.0909039-2.0487912 4-4.353v-28.647h1c.5522847 0 1 .44771525 1 1v34h-48c-.55228475 0-1 .4477153-1 1s.44771525 1 1 1h48v3c0 .5522847-.4477153 1-1 1z"/></g></g></svg>