<svg height="512pt" viewBox="-78 0 511 512" width="512pt" xmlns="http://www.w3.org/2000/svg"><path d="m353.75 209.238281-78.664062-196.667969c-3.039063-7.589843-10.390626-12.570312-18.570313-12.570312h-157.332031c-8.179688 0-15.53125 4.980469-18.570313 12.570312l-78.667969 196.667969c-5.246093 13.117188 4.429688 27.429688 18.570313 27.429688h138.410156v235.332031h-59.742187c-11.046875 0-20 8.953125-20 20s8.953125 20 20 20h157.332031c11.046875 0 20-8.953125 20-20s-8.953125-20-20-20h-57.589844v-235.332031h37.589844v58.667969c0 11.042968 8.953125 20 20 20s20-8.957032 20-20v-58.667969h58.667969c14.128906 0 23.820312-14.296875 18.566406-27.429688zm-303.691406-12.570312 62.664062-156.667969h130.253906l62.667969 156.667969zm0 0"/></svg>