<?xml version="1.0" encoding="utf-8"?>
<!-- Svg Vector Icons : http://www.onlinewebfonts.com/icon -->
<!DOCTYPE svg PUBLIC "-//W3C//DTD SVG 1.1//EN" "http://www.w3.org/Graphics/SVG/1.1/DTD/svg11.dtd">
<svg version="1.1" xmlns="http://www.w3.org/2000/svg" xmlns:xlink="http://www.w3.org/1999/xlink" x="0px" y="0px" viewBox="0 0 1000 1000" enable-background="new 0 0 1000 1000" xml:space="preserve">
<metadata> Svg Vector Icons : http://www.onlinewebfonts.com/icon </metadata>
<g><g transform="translate(0.000000,512.000000) scale(0.100000,-0.100000)"><path d="M4703.1,5010.2c-1178-137.9-2153-915.6-2517-2009.4c-116.8-352.5-143.7-528.7-143.7-961.6c0-333.3,5.7-421.4,42.1-580.4c113-511.5,285.4-881.1,741.3-1593.7c423.3-662.8,555.5-936.7,672.3-1398.3c76.6-312.2,120.7-678.1,130.3-1120.6c5.8-183.9,9.6-340.9,9.6-348.6c1.9-9.6,613-15.3,1360-15.3h1356.2l13.4,367.8c23,614.9,80.4,990.3,214.5,1392.6c113,337.1,220.3,538.3,662.8,1237.4c390.8,614.9,565.1,1001.8,670.4,1475c36.4,162.8,42.2,249,42.2,584.2c0,432.9-26.8,609.1-143.7,961.6C7478.7,4010.3,6607.1,4765,5540.2,4970C5314.1,5014,4904.2,5033.2,4703.1,5010.2z M5404.2,4403C6293,4234.4,7007.4,3617.6,7266,2794c84.3-268.2,116.9-473.1,116.9-764.3c0-570.8-130.3-931-620.6-1712.5C6199.1-581.2,6034.4-939.4,5913.7-1514c-49.8-235.6-109.2-683.8-109.2-827.5v-82.4h-802.6h-800.7l-13.4,185.8c-65.1,915.6-256.7,1444.3-894.6,2467.2c-555.5,888.8-676.2,1210.6-676.2,1800.6c0,291.2,32.6,496.1,116.9,764.3c254.8,812.2,942.4,1417.5,1821.7,1601.4C4772,4441.3,5183.9,4445.1,5404.2,4403z"/><path d="M3927.3-3602v-296.9H5000h1072.7v296.9v296.9H5000H3927.3V-3602z"/><path d="M4214.6-4483.1V-4780H5000h785.4v296.9v296.9H5000h-785.4V-4483.1z"/></g></g>
</svg>