<?xml version="1.0" encoding="utf-8"?>
<!-- Svg Vector Icons : http://www.onlinewebfonts.com/icon -->
<!DOCTYPE svg PUBLIC "-//W3C//DTD SVG 1.1//EN" "http://www.w3.org/Graphics/SVG/1.1/DTD/svg11.dtd">
<svg version="1.1" xmlns="http://www.w3.org/2000/svg" xmlns:xlink="http://www.w3.org/1999/xlink" x="0px" y="0px" viewBox="0 0 1000 1000" enable-background="new 0 0 1000 1000" xml:space="preserve">
<metadata> Svg Vector Icons : http://www.onlinewebfonts.com/icon </metadata>
<g><g transform="translate(0.000000,511.000000) scale(0.100000,-0.100000)"><path d="M4470,4987.7C2729.8,4792.6,1180,3628.5,483.9,1991.7C-139.3,526.5,1.8-1138.5,867.2-2500.1C1149.4-2942.2,1673.8-3509,2083-3812.4c1213.5-896,2713.9-1194.7,4139-823.1c1921.4,498.6,3381.8,2156.5,3645.2,4132c54.1,402.1,40,1081.8-32.9,1460.4c-251.6,1342.8-1027.7,2504.6-2177.7,3264.2c-451.5,296.3-1103,571.5-1634.4,686.7C5577.7,5004.2,4923.9,5039.5,4470,4987.7z M5436.6,4543.3c726.7-72.9,1432.2-315.1,2015.4-696.1C9149.9,2739.5,9874.3,606.5,9218.2-1347.8c-778.4-2309.4-3299.5-3539.3-5653.5-2760.9C1426.9-3400.8,187.5-1209,648.5,1046.3c315.1,1540.4,1425.1,2789.1,2916.1,3283C4178.4,4533.9,4808.7,4604.4,5436.6,4543.3z"/><path d="M4775.7,1509.6V239.6h223.4h223.4v1269.9v1269.9h-223.4h-223.4V1509.6z"/><path d="M3564.6,2012.8c-272.8-197.5-573.8-533.8-726.7-813.7c-538.5-978.3-364.5-2168.3,437.4-2977.3c392.7-397.4,884.2-627.9,1460.4-686.7c1053.6-105.8,2074.2,463.3,2509.3,1396.9c421,903.1,242.2,2010.7-444.5,2770.3c-119.9,134-416.2,371.6-460.9,371.6c-18.8,0-209.3-279.9-242.2-352.8c-2.4-9.4,40-47,94.1-82.3c364.5-242.2,672.6-686.7,797.2-1152.3c70.5-263.4,70.5-700.8,0-964.2c-56.4-209.3-195.2-517.4-312.8-689c-181.1-265.8-489.2-533.8-783.1-682c-978.3-489.2-2224.7-54.1-2716.2,950.1c-143.5,289.3-192.8,508-192.8,856c-2.3,458.6,96.4,806.6,336.3,1164.1c119.9,181.1,418.6,477.4,538.5,540.9l72.9,37.6l-77.6,134c-40,72.9-91.7,162.3-112.9,197.6c-18.8,37.6-40,65.8-47,65.8S3630.4,2057.5,3564.6,2012.8z"/></g></g>
</svg>