<?xml version="1.0" encoding="utf-8"?>
<!-- Generator: Adobe Illustrator 19.0.0, SVG Export Plug-In . SVG Version: 6.00 Build 0)  -->
<svg version="1.1" id="Layer_1" xmlns="http://www.w3.org/2000/svg" xmlns:xlink="http://www.w3.org/1999/xlink" x="0px" y="0px"
	 viewBox="131 -131 512 512" style="enable-background:new 131 -131 512 512;" xml:space="preserve">
<g id="XMLID_2_">
	<polygon id="XMLID_4_" points="643,99.9 535.9,99.9 618.8,16.1 583.4,-20.2 464.3,99.9 413.1,99.9 413.1,48.7 532.2,-71.4 
		495.9,-106.8 413.1,-23.9 413.1,-131 361.9,-131 361.9,-23.9 278.1,-106.8 241.8,-71.4 361.9,48.7 361.9,99.9 310.7,99.9 
		190.6,-20.2 155.2,16.1 238.1,99.9 131,99.9 131,151.1 238.1,151.1 155.2,233.9 190.6,270.2 310.7,151.1 361.9,151.1 361.9,202.3 
		241.8,321.4 278.1,356.8 361.9,273.9 361.9,381 413.1,381 413.1,273.9 495.9,356.8 532.2,321.4 413.1,202.3 413.1,151.1 
		464.3,151.1 583.4,270.2 618.8,233.9 535.9,151.1 643,151.1 	"/>
</g>
</svg>
